<svg xmlns="http://www.w3.org/2000/svg" xmlns:xlink="http://www.w3.org/1999/xlink" width="353" height="196"><defs><path id="a" d="M0 194.69h352.573V0H0z"/><path id="c" d="M.06.005H40.5v48.931H.06z"/><path id="e" d="M.261.005h32.86v31.656H.261z"/><path id="g" d="M.06.093h26.39v18.29H.06z"/><path id="i" d="M.06.28h33.326v26.56H.061z"/><path id="k" d="M.06.167h21.183v11.419H.061z"/><path id="m" d="M.06.124h33.293v45.098H.06z"/><path id="o" d="M.02.005h56.813v92.513H.02z"/><path id="q" d="M.257.005h50.76V63.16H.257z"/><path id="s" d="M.148.005h25.695v47.108H.148z"/><path id="u" d="M.96.306C.625 2.661.265 5.05.076 5.84l-.001.003V5.84c.19-.79.55-3.179.885-5.534"/><path id="x" d="M.359.221l.024.066"/><path id="A" d="M.146.136c.01.018.018.037.029.056"/><path id="G" d="M.269.319C.283.28.298.244.31.203"/><path id="J" d="M.302 10.854C.066 9.354 1.445.154 1.445.154"/><path id="M" d="M.31.155h.154V.31H.31z"/><path id="N" d="M.782.074S.425 2.803.031 5.58v-.001C.424 2.807.78.085.782.075"/><path id="Q" d="M.03 5.579C.426 2.803.783.074.783.074L6.86.147c-.198 2.963-1.676 5.284-3.668 5.69-.676.137-2.613.164-3.185-.06"/><linearGradient id="v" x1="48.159%" x2="50.97%" y1="-79.767%" y2="118.382%"><stop offset="0%" stop-color="#EEC2A7"/><stop offset="100%" stop-color="#FFF"/></linearGradient><linearGradient id="y" x1="-252.795%" x2="60.651%" y1="-3366.727%" y2="170.624%"><stop offset="0%" stop-color="#EEC2A7"/><stop offset="100%" stop-color="#FFF"/></linearGradient><linearGradient id="B" x1="-259.241%" x2="54.205%" y1="-3439.909%" y2="97.441%"><stop offset="0%" stop-color="#EEC2A7"/><stop offset="100%" stop-color="#FFF"/></linearGradient><linearGradient id="E" x1="76.211%" x2="244.869%" y1="345.48%" y2="2248.844%"><stop offset="0%" stop-color="#EEC2A7"/><stop offset="100%" stop-color="#FFF"/></linearGradient><linearGradient id="H" x1="-241.246%" x2="72.201%" y1="-3236.576%" y2="300.775%"><stop offset="0%" stop-color="#EEC2A7"/><stop offset="100%" stop-color="#FFF"/></linearGradient><linearGradient id="K" x1="49.551%" x2="50.546%" y1="2.531%" y2="105.033%"><stop offset="0%" stop-color="#EEC2A7"/><stop offset="100%" stop-color="#FFF"/></linearGradient><linearGradient id="O" x1="49.608%" x2="52.024%" y1="17.649%" y2="216.959%"><stop offset="0%" stop-color="#EEC2A7"/><stop offset="100%" stop-color="#FFF"/></linearGradient><linearGradient id="R" x1="47.175%" x2="61.382%" y1="22.154%" y2="159.212%"><stop offset="0%" stop-color="#EEC2A7"/><stop offset="100%" stop-color="#FFF"/></linearGradient></defs><g fill="none" fill-rule="evenodd"><path fill="#6DBEA7" d="M45.766 64.397c-2.557 1.99-4.544 4.955-5.594 8.462-.412 1.378-1.368 2.425-2.538 2.817-5.228 1.752-9.064 7.533-9.064 14.395 0 1.848.278 3.617.787 5.25.787 2.525-.225 5.313-2.29 6.35-5.55 2.79-9.451 9.39-9.451 17.093 0 3.119.64 6.057 1.77 8.635 1.712 3.903 1.073 8.721-1.643 11.681-3.838 4.182-6.25 10.23-6.25 16.96v7.389h34.273V64.397z"/><path fill="#6297A9" d="M332.707 153.062c-1.797-2.054-1.921-5.053-.41-7.325a13.142 13.142 0 002.2-7.3c0-4.734-2.493-8.886-6.236-11.218-2.067-1.287-3.155-3.726-2.648-6.106a9.904 9.904 0 00.216-2.063c0-4.712-3.304-8.654-7.723-9.636a2.371 2.371 0 01-1.845-2.542c.05-.531.067-1.04.013-1.456-.354-2.73-1.894-4.218-4.112-5.435a2.835 2.835 0 01-1.377-3.202c.16-.62.25-1.272.268-1.944.134-5.03-2.578-7.103-4.46-8.036a3.592 3.592 0 01-1.86-2.286 6.041 6.041 0 00-6.24-4.435 6.018 6.018 0 00-.673.087v83.264h37.938v-4.165c0-2.212-1.398-4.312-3.051-6.202"/><path fill="#A8D4E0" d="M350.944 166.044H1.629c-.9 0-1.629-.502-1.629-1.12 0-.62.73-1.121 1.629-1.121h349.315c.9 0 1.629.502 1.629 1.12 0 .62-.73 1.12-1.63 1.12"/><path fill="#D2D5D7" d="M281.538 177.962H64.21c-9.614 0-17.409-7.791-17.409-17.403V17.403C46.801 7.79 54.596 0 64.211 0h217.327c9.616 0 17.41 7.791 17.41 17.403v143.156c0 9.612-7.794 17.403-17.41 17.403"/><path fill="#57646A" d="M282.167 178.893H61.226c-8.617 0-15.603-6.983-15.603-15.597V16.528C45.623 7.914 52.609.93 61.226.93h220.941c8.617 0 15.603 6.983 15.603 15.597v146.768c0 8.614-6.986 15.597-15.603 15.597"/><path fill="#184657" d="M285.414.931H57.979c-6.824 0-12.356 5.53-12.356 12.35v143.48H297.77V13.281c0-6.82-5.532-12.35-12.356-12.35"/><mask id="b" fill="#fff"><use xlink:href="#a"/></mask><path fill="#FFF" d="M54.869 148.825h233.783V8.981H54.87z" mask="url(#b)"/><path fill="#FFFEF3" d="M54.869 148.825h233.783V8.981H54.87z" mask="url(#b)"/><path fill="#F29D7E" d="M221.97 59.28c-6.361 3.74-18.53 11.08-18.115 13.434.415 2.354 3.043.415 3.043.415s-4.425 2.631-3.596 4.016c.83 1.385 5.393-1.523 5.393-1.523s-3.042 1.8-1.936 3.185c1.107 1.384 4.978-1.385 4.978-1.385s-2.765 2.493-1.244 3.324c1.52.83 4.424-.555 11.338-4.155 6.914-3.6 9.265-6.786 9.265-6.786l-9.127-10.524z"/><path fill="#F6B199" d="M220.38 58.311c-3.008 1.35-11.616 7.686-10.475 9.244 1.14 1.558 6.74-2.077 6.74-2.077s4.978 2.181 8.194 1.246c3.215-.935 3.733-2.493 3.733-2.493l-8.193-5.92z"/><path fill="#F29D7E" d="M233.239 83.758c-6.775 2.63-16.316 10.297-18.252 12.982-1.349 1.87 6.118-.311 6.118-.311s-9.92 5.643-9.645 7.859c.277 2.216 6.638-1.662 6.638-1.662s-8.02 4.155-7.329 5.955c.691 1.8 9.54-3.6 9.54-3.6s-6.498 4.292-5.53 5.538c.968 1.247 7.329-3.185 7.329-3.185s-4.01 3.047-3.18 4.293c.829 1.247 10.785-4.154 16.177-7.893 5.393-3.739 9.852-8.344 9.852-8.344L233.24 83.758z"/><path fill="#FDD27F" d="M205.537 90.498c0 25.284-20.466 45.78-45.71 45.78-25.246 0-45.71-20.496-45.71-45.78 0-25.283 20.464-45.779 45.71-45.779 25.244 0 45.71 20.496 45.71 45.78"/><path fill="#E9A724" d="M159 106.706l-.797 4.262c-.206 1.098-.845 1.115-2.644.777-1.842-.346-2.432-.593-2.226-1.691l.765-4.087c-2.037-.519-3.806-1.26-5.314-2.18-1.508-.92-1.815-1.705-1.593-2.892.214-1.142.965-2.729 1.843-2.564.877.164 3.457 2.878 7.669 3.668 3.816.717 6.004-.783 6.514-3.506.51-2.725-.949-4.636-5.289-6.679-5.344-2.504-7.968-5.953-7.096-10.61.806-4.306 4.025-7.431 9.243-7.407l.798-4.261c.205-1.099.844-1.115 2.687-.77 1.798.339 2.388.586 2.182 1.684l-.765 4.086c1.563.384 2.874.904 4.283 1.623 1.577.797 1.928 1.59 1.722 2.688-.214 1.143-1.009 2.722-1.887 2.557-.833-.157-2.95-2.191-6.854-2.924-3.817-.717-5.618.9-6.063 3.273-.452 2.416.845 3.979 4.974 5.937 5.838 2.779 8.594 6.252 7.615 11.48-.83 4.438-4.488 7.48-9.767 7.536"/><path stroke="#E9A724" stroke-dasharray="2.390399980545044,3.585900020599365" stroke-linecap="round" stroke-width="1.2" d="M200.02 90.498c0 22.232-17.995 40.254-40.193 40.254-22.199 0-40.194-18.022-40.194-40.254 0-22.231 17.995-40.253 40.194-40.253 22.198 0 40.193 18.022 40.193 40.253z"/><g transform="translate(55 9)"><mask id="d" fill="#fff"><use xlink:href="#c"/></mask><path fill="#E289A9" d="M40.5 31.661C28.093 21.581 16.63 9.792 7.683-.309H-.68v31.06c5.309 3.783 10.865 7.56 16.491 11.286a668.118 668.118 0 0010.64 6.9c6.418-4.59 12.12-13.908 14.05-17.276" mask="url(#d)"/></g><g transform="translate(62.421 9)"><mask id="f" fill="#fff"><use xlink:href="#e"/></mask><path fill="#E289A9" d="M33.08 31.661l.041-.072C20.764 21.509 9.353 9.772.414-.31H.26C9.21 9.792 20.671 21.582 33.08 31.661" mask="url(#f)"/></g><g transform="translate(55 39.658)"><mask id="h" fill="#fff"><use xlink:href="#g"/></mask><path fill="#E289A9" d="M-.68.093v.189c5.355 3.817 10.96 7.627 16.636 11.385 3.52 2.33 6.97 4.564 10.352 6.715l.142-.104a668.173 668.173 0 01-10.64-6.9C10.184 7.653 4.628 3.876-.68.093" mask="url(#h)"/></g><path fill="#D0866B" d="M76.243 88.596c26.627 13.116 48.665 21.697 62.072 25.532 15.264 4.365 22.328 5.714 23.125 3.384.39-1.139-1.49-1.87-3.513-2.323 2.06.15 4.141.023 4.504-1.038.385-1.126-1.605-2.043-3.642-2.672 2.135.342 4.429.37 4.881-.954.479-1.4-2.275-2.468-4.909-3.158 2.02.249 4.03.192 4.294-.96.482-2.091-10.745-4.653-14.195-5.388 1.596.326 4.713.935 6.298 1.065 1.177.096 2.036-1.049 2.078-1.747.04-.699-.736-.952-3.366-1.709-5.26-1.514-16.525-5.232-43.746-16.88-7.277-3.115-14.631-7.224-21.771-11.843-1.557 3.556-6.224 13.437-12.11 18.691"/><g transform="translate(55 43.065)"><mask id="j" fill="#fff"><use xlink:href="#i"/></mask><path fill="#E289A9" d="M33.353 26.84l.033-.076C20.844 18.614 8.974 8.926-.68.28v.155C8.962 9.067 20.828 18.74 33.353 26.841" mask="url(#j)"/></g><g transform="translate(55 77.129)"><mask id="l" fill="#fff"><use xlink:href="#k"/></mask><path fill="#E289A9" d="M-.68.167v.177a674.51 674.51 0 0010.779 5.684c3.75 1.936 7.42 3.784 11.014 5.558l.13-.119a668.2 668.2 0 01-11.32-5.71A670.577 670.577 0 01-.68.166" mask="url(#l)"/></g><g transform="translate(55 43.374)"><mask id="n" fill="#fff"><use xlink:href="#m"/></mask><path fill="#E289A9" d="M-.68 33.921a670.577 670.577 0 0010.603 5.59 668.2 668.2 0 0011.32 5.71c5.886-5.254 10.553-15.134 12.11-18.69C20.829 18.429 8.963 8.757-.68.124v33.797z" mask="url(#n)"/></g><path fill="#D0866B" d="M115.871 54.785c-6.9-3.882-13.769-8.761-20.37-14.124-1.931 3.368-7.633 12.687-14.05 17.275 12.664 8.042 24.285 14.804 34.352 20.206a45.697 45.697 0 019.775-17.957 1129.194 1129.194 0 01-9.707-5.4"/><g transform="translate(231.56 9)"><mask id="p" fill="#fff"><use xlink:href="#o"/></mask><path fill="#41B093" d="M47.902 0c-2.73 8.233-7.688 21.767-13.869 32.33-1.347 4.597-3.044 8.838-5.183 12.204C18.688 60.529.02 74.239.02 74.239c1.369 4.785 10.208 15.617 13.69 18.279 0 0 27.81-16.884 40.86-34.69a56.73 56.73 0 002.263-3.337V0h-8.931z" mask="url(#p)"/></g><g transform="translate(219.5 9)"><mask id="r" fill="#fff"><use xlink:href="#q"/></mask><path fill="#41B093" d="M32.653 0c-2.65 11.175-6.203 19.376-12.692 27.708C11.872 38.094.257 49.45.257 49.45c3.527 2.637 8.798 9.297 9.956 13.71 0 0 19.704-8.656 31.526-24.235 1.506-1.984 2.96-4.214 4.354-6.596C49.356 21.2 50.568 7.98 51.017 0H32.653z" mask="url(#r)"/></g><g transform="translate(253.822 9)"><mask id="t" fill="#fff"><use xlink:href="#s"/></mask><path fill="#389393" d="M8.04 26.935C6.315 36.02 2.875 42.836.147 47.113c2.563-2.484 5.044-5.188 7.269-8.081C15.772 28.164 22.572 9.825 25.843 0H10.036c.014 7.909-.359 18.3-1.997 26.935" mask="url(#t)"/></g><g><path fill="#D0866B" d="M73.155 101.726c-.532-1.977-.25-13.029-.25-13.029l-8.654.32s-.101 10.91-.33 12.655c-.228 1.746-3.205 2.443-6.703 4.226-.48.245-1.016.81-1.491 1.22.564 1.268 12.214 5.523 13.043 6.618.91 1.203 9.568-5.204 10.577-7.981-4.07-2.24-5.692-2.172-6.192-4.029"/><path fill="#B86F5E" d="M72.463 88.504l-7.994.295s-.03 2.561-.095 5.663c.615 1.452 1.846 3.774 3.991 3.74 2.463-.04 3.237-2.189 4.012-3.462-.025-3.267.086-6.236.086-6.236"/><path fill="#D0866B" d="M66.447 88.761a2.812 2.812 0 01-3 2.611 2.813 2.813 0 01-2.607-3.005 2.811 2.811 0 115.607.394"/><path fill="#D9624B" d="M65.12 88.668a1.482 1.482 0 11-2.954-.207 1.482 1.482 0 112.955.207"/><path fill="#184657" d="M61.922 87.84c-1.283-1.126-1.58-5.183.77-6.814.857-.595 2.023-.796 2.264-1.651.465-1.65 2.97-2.87 4.818-1.945 2.38 1.191 3.535.274 4.904-1.117 1.47-1.496 2.39-3.078 6.444-2.366 4.054.712 5.248.232 6.01-1.7.761-1.933 4.474-3.506 7.915-1.101 3.44 2.405 4.539 4.293 6.859 3.429 2.32-.865 4.669-2.2 6.724-.039 2.055 2.162.367 6.369-2.322 6.32-2.69-.047-1.346 3.155-.625 5.083.72 1.928-1.274 4.862-4.665 3.685-3.39-1.178-4.144-.198-5.247 1.57-1.102 1.766-3.997 1.681-5.401.64-1.405-1.04-3.111-1.87-5.126-.634-2.014 1.236-2.68 2.02-5.045 1.022-2.364-.998-2.832-.639-4.175.08-1.342.717-4.038-.303-4.038-.303L61.922 87.84z"/><path fill="#183E57" d="M68.658 89.097l-.174-2.074 7.888.504c3.16-1.844 3.91-1.825 6.406-1.175 2.495.65 2.166-2.304 4.788-3.186 2.623-.882 3.13 1.467 5.54 1.396 2.41-.071 1.699-2.457 4.77-2.271 2.9.175 3.249 2.358 7.31 2.297.164.479.345.944.497 1.351.72 1.928-1.274 4.862-4.665 3.684-3.39-1.177-4.144-.197-5.247 1.57-1.102 1.767-3.997 1.683-5.401.641-1.405-1.04-3.111-1.87-5.126-.634-2.014 1.236-2.68 2.02-5.045 1.021-2.364-.997-2.74-.763-4.083-.045-1.342.718-3.963.081-3.963.081l-3.495-3.16z"/><path fill="#D0866B" d="M70.74 88.761a2.812 2.812 0 003 2.611 2.814 2.814 0 002.607-3.005 2.811 2.811 0 10-5.606.394"/><path fill="#D9624B" d="M72.066 88.668a1.482 1.482 0 001.582 1.376 1.483 1.483 0 00-.208-2.96 1.483 1.483 0 00-1.374 1.584"/><path fill="#D0866B" d="M63.281 89.714c.239 3.96 1.582 6.832 5.593 6.81 2.512-.014 4.666-2.771 4.681-6.739.016-4.16-.814-7.504-5.51-7.554-4.552-.05-5.001 3.523-4.764 7.483"/><path fill="#D9624B" d="M70.219 91.976a1.232 1.232 0 102.458-.171 1.232 1.232 0 00-2.458.17m-6.126-.025a1.232 1.232 0 101.142-1.316 1.233 1.233 0 00-1.142 1.316m4.383-2.238l-.962 1.89a.339.339 0 00.297.492l1.141.015-.476-2.397z"/><path fill="#B86F5E" d="M72.53 88.36c-.135-.02-.265-.052-.394-.08-.132-.018-.26-.049-.39-.065a5.296 5.296 0 00-.769-.058 4.008 4.008 0 00-.754.078c-.246.05-.5.13-.724.235l-.015.007a.104.104 0 01-.12-.167c.212-.225.471-.364.748-.463.277-.1.572-.141.863-.147.292.004.582.043.857.123.139.036.27.095.403.144.128.062.254.128.375.2a.106.106 0 11-.07.195l-.01-.002z"/><path fill="#1A1A1A" d="M70.262 89.71c.171.032.336.067.5.09a2.579 2.579 0 00.968-.024c.155-.036.318-.087.46-.156l.009-.005a.07.07 0 01.093.031.07.07 0 01-.011.078c-.266.287-.652.401-1.025.413a1.99 1.99 0 01-.55-.076c-.09-.022-.173-.06-.258-.093-.081-.042-.162-.082-.24-.13a.07.07 0 01-.022-.097.07.07 0 01.073-.032h.003zm-5.504 0c.171.032.336.067.5.09a2.6 2.6 0 00.969-.024c.154-.036.316-.087.459-.156l.01-.005a.07.07 0 01.08.11c-.265.286-.651.4-1.023.412a1.97 1.97 0 01-.55-.076c-.09-.022-.174-.06-.259-.093-.081-.042-.162-.082-.24-.13a.07.07 0 11.05-.13l.004.002z"/><path fill="#B86F5E" d="M67.233 88.283c-.12-.014-.235-.04-.35-.061-.115-.016-.227-.04-.34-.055a5.4 5.4 0 00-.672-.055 3.888 3.888 0 00-.661.047 3.26 3.26 0 00-.64.172l-.016.006a.105.105 0 01-.114-.17 1.6 1.6 0 01.672-.4c.247-.081.507-.111.765-.111.257.006.511.047.753.12.122.034.237.087.353.132.112.056.223.115.328.181a.106.106 0 01-.069.195l-.009-.001z"/><path fill="#D9624B" d="M67.136 93.24c-.006.187.648.979 1.433.964.786-.015 1.402-.79 1.412-1.019.012-.273-.638.667-1.424.681-.785.015-1.412-.91-1.421-.627"/><path fill="#1A4E60" d="M62.961 93.868a.14.14 0 01-.139-.14v-2.992a.14.14 0 01.14-.14.14.14 0 01.139.14v2.993a.14.14 0 01-.14.14m10.939.126a.14.14 0 01-.139-.14v-2.992a.14.14 0 01.14-.14.14.14 0 01.139.14v2.993a.14.14 0 01-.14.14"/><path fill="#184657" d="M76.314 87.542c-2.278.924-3.17 1.192-4.228.582-1.057-.609-.922-3.499-2.477-3.984-1.555-.484-1.91.927-3.623.726-1.831-.215-2.657.591-2.657.591s-.603-2.726 2.275-3.757c2.879-1.031 7.041-.1 8.74 1.682 1.698 1.781 1.97 4.16 1.97 4.16"/><path fill="#045E80" d="M82.177 138.856c-1.763-6.584-8.246-10.421-14.46-10.421-6.216 0-12.897 3.199-14.226 9.904-1.134 5.72.225 11.283 5.485 11.283h17.48c5.26 0 7.09-5.649 5.721-10.766"/><path fill="#E6E5CE" d="M70.536 136.186h-4.342l-.004.173H53.004v.171h28.091v-.171h-10.56z"/><path fill="#184657" d="M53.004 137c0 .232.189.42.42.42h27.25a.42.42 0 00.421-.42v-.47h-28.09v.47z"/><path fill="#FAF8DC" d="M66.935 124.588a2.467 2.467 0 00-2.465 2.469 2.467 2.467 0 002.465 2.469 2.467 2.467 0 002.465-2.47 2.467 2.467 0 00-2.465-2.468"/><path fill="#044780" d="M56.512 142.198c-.006.07-.01.138-.01.209v4.268a2.608 2.608 0 002.598 2.603h15.967a2.609 2.609 0 002.6-2.603v-3.712c-4.738-1.633-15.69-1.911-21.155-.765"/><path fill="#D0866B" d="M57.244 141.856c4.115-.618 5.749 3.359 7.262 9.621 1.513 6.263 5.446 23.03 7.413 28.789 1.81 5.3-.303 3.636-1.211 6.515-.842 2.67-2.211 4.665-4.235 4.772-1.438.076-.026-4.318 1.588-7.651-.227-3.106-3.48-9.167-8.547-20.152-4.989-10.813-5.094-12.525-5.396-16.162-.303-3.636 1.614-5.505 3.126-5.732"/><path fill="#D9624B" d="M56.393 145.492a1.76 1.76 0 001.76 1.762 1.76 1.76 0 001.758-1.762 1.76 1.76 0 00-1.759-1.761 1.76 1.76 0 00-1.759 1.761"/><path fill="#DDA693" d="M71.692 141.704c3.857 0 3.782 7.652 3.555 11.743-.227 4.091-2.648 16.97-5.673 25.682-3.026 8.712-3.48 10.151-3.555 12.652-.076 2.5-2.875 2.954-4.766 2.878-1.89-.075-1.89-.53.076-5.909 1.967-5.378 4.463-20.53 4.916-29.47.454-8.939-1.512-17.576 5.447-17.576"/><path fill="#D9624B" d="M69.252 145.568a1.76 1.76 0 001.759 1.762 1.76 1.76 0 001.758-1.762 1.76 1.76 0 00-1.758-1.762 1.76 1.76 0 00-1.759 1.762"/><path fill="#E289A9" d="M79.827 117.432l.93.93 3.262-8.358s-1.462-2.67-4.73-4.45c-3.265-1.779-4.185-1.952-4.557-2.182 0 0-4.672 5.713-5.876 5.77-1.204.058-6.737-5.684-6.737-5.684s-5.273 1.924-7.137 3.876c-1.572 1.648-2.206 2.699-2.206 2.699l2.28 7.422v-.023h24.771z"/><path fill="#D0866B" d="M91.414 127.976c-1.282-5.45-3.842-12.581-7.467-17.737l-3.19 8.124c.164.285.338.575.338.927v2.245c1.676 4.116 3.383 8.278 3.383 8.278s-1.414-.04-3.383-.028v6.574h6.17c3.668 0 5.471-2.763 4.15-8.383"/><path fill="#D9624B" d="M91.583 133.34a1.987 1.987 0 00-1.143-.362 2.001 2.001 0 00-1.614 3.182c1.369-.382 2.325-1.32 2.757-2.82"/><path fill="#FAF8DC" d="M68.856 109.66c1.452.026 5.601-5.28 6.247-6.116a2.598 2.598 0 01-.371-.172s-4.672 5.713-5.876 5.77c-1.204.058-6.736-5.684-6.736-5.684s-.148.054-.399.151c.605.65 5.654 6.023 7.135 6.05"/><path fill="#D0866B" d="M45.208 128.205c-.692 3.308-.376 5.536.74 6.815-.432-.495-.743-1.132-.923-1.918.304-.187.66-.296 1.043-.296a2.001 2.001 0 011.533 3.286 4.225 4.225 0 01-.45-.178c.648.298 1.418.445 2.3.445h3.553v-6.599c-.68-.042-1.089-.063-1.089-.063s.42-1.136 1.09-2.808v-7.6c0-1.07.865-1.937 1.933-1.937h.133l-2.247-7.197c-2.192 3.109-6.14 11-7.616 18.05m1.905 7.692"/><path fill="#D9624B" d="M47.152 135.915c-.013-.007-.026-.012-.04-.018.014.006.027.011.04.018m-.837-.532l-.032-.028.032.028m.402.295l-.045-.028.045.028m-.763-.649"/><path fill="#D9624B" d="M48.067 134.808a2.001 2.001 0 00-2-2.002c-.382 0-.738.11-1.042.296.18.786.491 1.423.922 1.918l.007.009c.103.117.213.225.329.327l.032.027c.113.096.232.185.358.267l.044.028c.126.08.258.154.396.22l.039.016a4.2 4.2 0 00.45.178c.29-.347.465-.795.465-1.284"/><path fill="#FCFBEB" d="M79.419 117.372a1.912 1.912 0 00-.258-.019H54.938a1.936 1.936 0 00-1.934 1.937v.345c0-1.07.866-1.937 1.934-1.937h24.223a1.937 1.937 0 011.934 1.937v-.345c0-.982-.73-1.791-1.676-1.918"/><path fill="#E6E5CE" d="M66.935 129.526a2.467 2.467 0 01-2.465-2.47 2.467 2.467 0 012.465-2.468 2.467 2.467 0 012.465 2.469 2.467 2.467 0 01-2.465 2.469m12.618-11.788a1.95 1.95 0 00-.392-.04H54.938a1.936 1.936 0 00-1.934 1.937v16.724H66.19l.004-.173h4.342v.172h10.56v-16.723c0-.935-.663-1.715-1.543-1.897"/><path fill="#A8D4E0" d="M182.106 195.276h109.118c.427 0 .774-.456.774-1.019s-.347-1.02-.774-1.02H182.106c-.427 0-.774.457-.774 1.02s.347 1.02.774 1.02"/><path fill="#FAF8DC" d="M252.657 147.853c-2.064 5.082-2.881 12.295-3.139 17.462l11.179 1.12-8.04-18.582z"/><path fill="#C57F65" d="M221.026 164.123s.891-2.19 5.19-1.886c3.736.264 18.281 2.629 22.032 3.244 1.468 2.283 2.965 4.547 4.566 6.736-6.665 2.504-20.586-4.52-22.781-5.144-2.478-.703-3.712-1.223-4.89-1.297-1.178-.074-1.916.441-2.104.15-.188-.291.896-1.028.896-1.028-.469.04-1.723 1.043-1.85.655-.125-.388 1.117-1.159 1.117-1.159-.572.042-1.476 1.03-1.775.805-.298-.226.74-1.264.74-1.264l-1.14.188z"/><path fill="#A55F51" d="M221.026 164.123s.891-2.19 5.19-1.886c3.736.264 18.281 2.629 22.032 3.244 1.468 2.283 2.965 4.547 4.566 6.736-6.665 2.504-20.586-4.52-22.781-5.144-2.478-.703-3.712-1.223-4.89-1.297-1.178-.074-1.916.441-2.104.15-.188-.291.896-1.028.896-1.028-.469.04-1.723 1.043-1.85.655-.125-.388 1.117-1.159 1.117-1.159-.572.042-1.476 1.03-1.775.805-.298-.226.74-1.264.74-1.264l-1.14.188z"/><path fill="#C57F65" d="M263.638 148.491c-2.382 3.385-7.696 3.327-8.846 2.844-2.07-.867-1.365.154-2.33-1.645 1.726-3.942 2.505-4.736 2.22-6.467-.316-1.912-4.689-10.923-4.689-10.923l7.58-3.121s4.163 8.959 5.043 10.373c.532.855 2.916 1.968 4.031 2.867-.368 2.457-1.583 4.046-3.009 6.072"/><path fill="#A55F51" d="M253.922 138.506a5.858 5.858 0 01-.946.286c-1.283-3.16-2.542-6.093-2.542-6.093l5.49-2.062c1.112 3.532.584 6.88-2.002 7.869"/><path fill="#D6B88D" d="M258.139 122.21c1.297 1.74 3.368 3.481.374 8.87l-2.949-.318.652-6.164 1.923-2.387z"/><path fill="#C57F65" d="M246.35 131.167c.512 2.334 1.403 5.209 2.908 6.22.996.668 2.102.414 4.352-.677 2.183-1.058 3.898-3.933 3.047-7.811-.852-3.879-2.513-6.81-6.695-5.889-4.604 1.014-4.463 4.279-3.612 8.157"/><path fill="#000" d="M247.882 129.605a.398.398 0 10.777-.17.398.398 0 00-.777.17"/><path fill="#C85A44" d="M254.802 132.05a2.818 2.818 0 00-1.207-5.504l1.207 5.504z"/><path fill="#BC422A" d="M254.517 130.748a1.484 1.484 0 00-.637-2.9l.637 2.9z"/><path fill="#C85A44" d="M248.793 131.613a1.233 1.233 0 102.408-.53 1.232 1.232 0 10-2.408.53m-2.265-1.993l-1.194 2.606a.457.457 0 00.428.648l1.543-.043-.777-3.21z"/><path fill="#D6B88D" d="M253.702 127.229l.512 2.155-.751.21c-.066-.545-.498-1.82-.646-2.237l.885-.128z"/><path fill="#D6B88D" d="M247.1 121.039c1.599-1.445 3.093-.583 6.727-.958 4.159-.43 5.441 3.498 5.393 5.245-.09 3.194-4.84 2.74-5.998 2.506-1.543-.31-2.534-1.86-3.505-3.864 0 0-1.338-.255-3.519 1.677-1.115-.593-1.504-2.429.903-4.606"/><path fill="#C85A44" d="M249.382 127.676a3.396 3.396 0 00-2.016.143 1.954 1.954 0 00-.46.256l-.069.055-.03.028-.012.011s-.003.004.001.003a.056.056 0 01.016-.003c.005.002-.006-.002.038.001.035.004.07.035.08.058a.119.119 0 00-.205.118.125.125 0 00.085.06c.047.004.037 0 .043 0a.148.148 0 00.026-.005l.045-.012.273-.065c.101-.025.204-.045.305-.066.202-.042.407-.076.613-.112l.625-.104c.211-.036.424-.072.64-.128a.125.125 0 00.09-.15.123.123 0 00-.088-.088m-1.499 7.201a5.277 5.277 0 01-.303.122c.036.12.08.254.134.395.15-.042.308-.097.466-.168.58-.26.627-1.228.487-1.399-.14-.17-.204.79-.784 1.05"/><path fill="#C57F65" d="M233.437 179.83c-.389 2.105-2.144 10.805-2.172 12.614-.025 1.534-4.17.81-6.994.832-3.612.029-7.114.566-6.937-.718.115-.832 5.819-.689 8.588-4.587l1.483-7.608 6.032-.532z"/><path fill="#A55F51" d="M233.437 179.83c-.389 2.105-2.144 10.805-2.172 12.614-.025 1.534-4.17.81-6.994.832-3.612.029-7.114.566-6.937-.718.115-.832 5.819-.689 8.588-4.587l1.483-7.608 6.032-.532z"/><path fill="#B7485B" d="M260.809 171.83c-3.519-5.188-12.309-19.903-22.286-18.893-9.127.923-12.739 27.88-12.739 27.88l8.514 2.714 5.985-18.945 16.616 23.104 11.436-4.405-7.526-11.454z"/><path fill="#E85F5B" d="M287.526 171.516c2.236 7.838 2.738 20.069-5.073 21.79-4.3.947-9.89.345-24.336.43-14.275.086-23.561.776-23.475-7.062.085-7.837 17.37-5.856 21.067-6.2 3.698-.345 20.81-.517 20.81-.517l11.007-8.44z"/><path fill="#FAF8DC" d="M253.86 145.29s1.063 1.81 4.472.044c3.445-1.784 4.859-5.685 4.859-5.685s10.577 2.24 17.8 15.59c4.598 8.498 8.255 20.67 8.255 20.67s-4.93 6-24.88 4.191c0 0-5.99-11.426-9.087-16.938-3.095-5.512-5.632-10.12-1.419-17.871"/><path fill="#D9D5DB" d="M258.519 150.013c-3.734 4.213-5.045 11.383-5.045 11.383l2.042 2.584 3.003-13.967zm11.809 3.589c1.662 4.852-2.981 20.9-6.994 24.517l-4.099-7.579 11.093-16.938z"/><path fill="#FAF8DC" d="M211.854 154.704l.133-.041 5.15 16.602h17.82v.173a.823.823 0 01-.823.824H217.13a.996.996 0 01-.976-.8l-4.864-15.685a.857.857 0 01.563-1.073"/><path fill="#C57F65" d="M258.891 152.396c-1.796 3.966-6.408 21.677-6.408 21.677s-17.478-7.139-21.603-8.389c-4.125-1.25-5.477.688-5.477.688l1.154.07s-1.242.782-1.001 1.068c.24.287 1.341-.476 1.908-.39 0 0-1.382.476-1.345.882.038.407 1.482-.293 1.948-.228 0 0-1.22.477-1.1.803.118.326.952-.013 2.085.32 1.132.334 2.22 1.114 4.481 2.35 2.26 1.235 17.285 13.735 23.523 9.114 6.238-4.62 13.616-21.247 13.272-26.759-.438-7.025-8.022-8.748-11.437-1.206"/><path fill="#C85A44" d="M256.98 180.472c.513-.35.972-.8 1.383-1.334a1.847 1.847 0 00-2.775-.331 1.852 1.852 0 00-.29 2.394 4.953 4.953 0 001.683-.73"/><path fill="#E289A9" d="M276.317 180.313l-.169.034c-.866-4.28-5.468-17.828-7.213-20.758l.148-.088c1.75 2.94 6.365 16.522 7.234 20.812"/><path fill="#CAC6FE" d="M254.004 168.38l.098-.356 1.607-1.762 9.345 2.125-.813 2.654a57.913 57.913 0 01-.912 1.58c-5.115-.948-8.628-3.666-9.325-4.24"/><path fill="#FAF8DC" d="M253.592 168.006c1.627-5.931 3.84-13.655 4.99-16.197 3.722-8.22 11.986-6.341 12.464 1.314.223 3.58-2.543 11.461-6.252 18.311-3.17-.35-9.235-2.418-11.202-3.428"/><path fill="#FCC14A" d="M239.312 193.306l-1.284-15.555c-.173-2.096-1.953-3.737-4.052-3.737h-28.343c-2.096 0-3.875 1.638-4.052 3.73l-1.308 15.562h-1.726l1.32-15.706c.251-2.977 2.784-5.309 5.766-5.309h28.343c2.987 0 5.52 2.336 5.766 5.318l1.295 15.697h-1.725z"/><path fill="#E289A9" d="M265.868 169.507l-.023.17c-4.487-.625-11.7-3.42-11.772-3.45l.063-.16c.072.028 7.265 2.817 11.732 3.44m-12.546-23.033c.007.013.668 1.31 4.324.755 3.525-.535 6.046-3.988 6.982-7.173l.164.048a12.504 12.504 0 01-1.902 3.838c1.455.554 2.654 1.732 2.74 1.818.49.036.978.124 1.455.266 2.41.718 3.397 2.976 3.8 4.743.537 2.36.266 4.762-.13 6.101l-.166-.049c.934-3.157.545-9.41-3.553-10.63-1.808-.538-3.768-.292-5.52.692-1.689.95-2.68 2.268-2.914 3.152l-.167-.044c.292-1.105 1.497-2.414 2.997-3.258 1.248-.702 2.601-1.035 3.933-.988-.371-.343-1.394-1.221-2.583-1.66-1.28 1.681-3.022 2.998-5.11 3.314-.66.1-1.224.142-1.708.142-2.31 0-2.776-.946-2.798-.995l.156-.072z"/><path fill="#E85F5B" d="M349.066 92.373c3.18-.687 4.117-3.67 3.134-5.688-.983-2.019-.73-2.946-2.762-5.709-2.03-2.762-3.265-2.722-5.779-4.055-2.514-1.332-2.494-2.888-3.709-5.536-1.215-2.647-2.678-4.191-5.506-5.407-2.828-1.216-3.868-.772-6.515-2.948-2.647-2.177-1.569-3.902-4.648-5.36-3.691-1.75-6.19 1.093-7.008 4.196-.817 3.102 3.43 11.06 3.43 11.06s.629.9 2.059 3.646c1.43 2.746 2.478 3.49 5.994 4.154 3.516.664 4.907 2.174 5.983 3.8 1.077 1.627 3.337 2.756 5.563 2.825 2.226.07 3.632.978 5.1 2.698 1.468 1.72 3.507 2.573 4.664 2.324"/><path fill="#B7485B" d="M318.217 64.392l5.878 4.927c3.259 1.697 4.555.86 5.764 3.048 1.21 2.188 2.394 4.43 3.982 5.227 1.588.797 4.414.599 6.12 2.558 1.704 1.96 1.62 4.27 3.572 5.691 1.953 1.422 3.163 1.197 4.273 3.6.443.959.488 2.014.384 2.937-1.15-.175-2.643-.989-3.788-2.33-1.468-1.72-2.874-2.63-5.1-2.699-2.226-.069-4.486-1.198-5.563-2.824-1.076-1.627-2.467-3.137-5.983-3.801-3.516-.664-4.564-1.407-5.994-4.154-1.43-2.747-2.06-3.645-2.06-3.645s-1.81-3.393-2.839-6.612l1.354-1.923z"/><path fill="#F29D7E" d="M350.746 43.799c-.334-.096-.516.458-.617 1.048.013-.596-.054-1.196-.365-1.285-.33-.094-.564.494-.715 1.091.066-.621.04-1.284-.347-1.395-.41-.118-.677.693-.837 1.464.042-.587-.004-1.166-.339-1.226-.609-.108-1.18 3.17-1.342 4.177.07-.465.2-1.374.214-1.833.01-.341-.332-.573-.534-.574-.201-.002-.262.226-.442.996-.358 1.541-.815 5.15-3.767 13.18s-8.418 17.393-12.722 21.255c-.574.515-1.645 1.382-2.261 1.906-1.704-.745-3.046-1.354-3.533-2.195l-.028-.056a1.47 1.47 0 01-.154-.445v-.001c-.237-1.502 1.142-10.7 1.142-10.701l-7.474-.08 6.077.073c-.198 2.963-1.676 5.285-3.668 5.69-.677.137-2.613.164-3.185-.06l.024-.198c-.334 2.355-.694 4.744-.885 5.533v.003a3.16 3.16 0 01-.074.254c-.013.04-.027.078-.042.115-.216.563-.538.722-1.043.849a4.333 4.333 0 00-1.906 1.066 41.652 41.652 0 01-1.025-.919c-3.858-3.645-8.654-12.366-11.174-19.805-2.52-7.438-2.854-10.76-3.146-12.183-.146-.711-.197-.922-.383-.925-.185-.004-.504.2-.502.514.002.422.099 1.26.152 1.688-.123-.928-.57-3.95-1.133-3.865-.309.046-.364.577-.34 1.116-.128-.71-.354-1.461-.733-1.363-.358.093-.397.7-.351 1.272-.125-.551-.326-1.096-.63-1.017-.288.074-.364.622-.366 1.17-.078-.544-.233-1.057-.541-.977-.631.164-.419 2.06.423 6.187.841 4.128 3.078 11.34 6.75 20.053 2.872 6.816 7.116 12.79 10.815 15.41.018.278.046.557.094.838.304-.043.654-.09 1.04-.136.622.33 1.22.554 1.786.65 1.464.252 2.093-.172 2.25-.929.414-.007.835-.008 1.263 0 3.283.063 7.172-.579 10.171 1.672a13.221 13.221 0 01-.052-.808c.152-.01.31-.024.483-.05 4.54-.659 11.185-8.483 15.427-17.87 4.242-9.385 6.88-17.177 7.911-21.648 1.032-4.471 1.316-6.53.634-6.726M327.08 175.61c.579 1.527 1.458 3.875 2.111 5.049.634 1.139.826 2.159.518 2.541-.307.383-2.421.395-5.7 1.417-2.49.775-4.733.507-4.733.507s.15-1.137.998-1.27c.847-.133 3.082-1.388 3.643-2.151.562-.764-1.553-5.027-1.553-5.027l4.715-1.066z"/><path fill="#184657" d="M319.276 185.124s.15-1.137.998-1.27c.74-.116 2.54-1.089 3.357-1.842.563.314 2.062 1.016 3.058.284.87-.64 1.91-1.343 2.463-1.71.013.023.026.05.04.073.633 1.139.825 2.159.517 2.541-.307.383-2.421.395-5.701 1.417-2.488.775-4.732.507-4.732.507"/><path fill="#ED6D53" d="M319.276 185.124s.03-.22.134-.477c1.224.002 3.57-.03 5.216-.689 1.686-.674 2.908-.618 5.226-1.31.003.239-.044.429-.143.552-.307.383-2.421.395-5.701 1.417-2.488.775-4.732.507-4.732.507"/><path fill="#F29D7E" d="M314.014 176.365c.367 1.882 1.952 6.604 1.952 6.604s.175.617-.702.843c-.877.226-9.81 1.92-9.81 1.92s-.269-.816.327-1.095c.596-.28 3.636-1.634 4.173-2.77.537-1.136-.771-4.787-.771-4.787l4.831-.715z"/><path fill="#184657" d="M305.781 184.637c.573-.268 3.405-1.531 4.099-2.638.456.391 1.567 1.249 2.353 1.063.9-.212 2.12-.94 3.28-1.475.263.817.453 1.382.453 1.382s.175.617-.702.843c-.877.226-9.811 1.92-9.811 1.92s-.268-.816.328-1.095"/><path fill="#ED6D53" d="M315.264 183.812c-.877.226-9.811 1.92-9.811 1.92s-.096-.297-.043-.594c.987-.166 4.324-.732 5.848-1.03 1.71-.335 3.053-.671 4.685-1.207l.023.068s.175.617-.702.843m6.332-116.816a2.57 2.57 0 002.203 2.887 2.57 2.57 0 10.68-5.095 2.567 2.567 0 00-2.883 2.208"/><path fill="#BC422A" d="M322.8 67.157a1.352 1.352 0 102.68.359 1.353 1.353 0 00-2.68-.359"/><path fill="#F29D7E" d="M324.1 69.205l-7.476-.08zm-1.143 10.702"/><g transform="translate(314.913 74.324)"><mask id="w" fill="#fff"><use xlink:href="#u"/></mask><path fill="url(#v)" d="M.96.306C.625 2.66.265 5.05.075 5.838.266 5.05.626 2.66.96.306" mask="url(#w)"/></g><g transform="translate(322.654 79.906)"><mask id="z" fill="#fff"><use xlink:href="#x"/></mask></g><g transform="translate(322.964 80.216)"><mask id="C" fill="#fff"><use xlink:href="#A"/></mask><path fill="url(#B)" d="M.146.136c.01.018.018.037.029.056L.146.136" mask="url(#C)"/></g><g transform="translate(316.461 68.741)"><mask id="F" fill="#fff"><use xlink:href="#D"/></mask></g><g transform="translate(314.604 80.216)"><mask id="I" fill="#fff"><use xlink:href="#G"/></mask><path fill="url(#H)" d="M.269.319C.283.28.298.244.31.203A1.96 1.96 0 01.27.32" mask="url(#I)"/></g><g transform="translate(322.654 69.051)"><mask id="L" fill="#fff"><use xlink:href="#J"/></mask><path fill="url(#K)" d="M.302 10.854C.066 9.354 1.445.154 1.445.154s-1.38 9.2-1.143 10.7" mask="url(#L)"/></g><path fill="#CAC6FE" d="M315.873 74.63c.393-2.772.75-5.494.751-5.503 0 .008-.412 2.655-.751 5.502"/><g transform="translate(315.842 69.051)"><mask id="P" fill="#fff"><use xlink:href="#N"/></mask><path fill="url(#O)" d="M.782.074v.001" mask="url(#P)"/></g><path fill="#CAC6FE" d="M316.625 69.126c-.002.01-.359 2.732-.752 5.503v.001c.394-2.776.752-5.504.752-5.504"/><path fill="#F29D7E" d="M315.873 74.63l-.024.198c.572.224 2.508.197 3.185.06 1.992-.405 3.47-2.727 3.668-5.69l-6.077-.072s-.358 2.728-.752 5.504"/><g transform="translate(315.842 69.051)"><mask id="S" fill="#fff"><use xlink:href="#Q"/></mask><path fill="url(#R)" d="M.03 5.579a43.2 43.2 0 01-.023.198c.572.224 2.509.197 3.185.06C5.184 5.43 6.662 3.11 6.86.146L.783.074S.424 2.803.03 5.58" mask="url(#S)"/></g><path fill="#C8725F" d="M315.873 74.63l-.024.198c.572.224 2.508.197 3.185.06 1.992-.405 3.47-2.727 3.668-5.69l-6.077-.072s-.358 2.728-.752 5.504"/><path fill="#F29D7E" d="M315.202 65.914c-.326 3.607.804 6.67 3.914 6.951 2.646.24 5.225-2.456 5.73-6.042.506-3.58-.585-6.662-4.26-7.005-5.28-.493-5.058 2.49-5.384 6.096"/><path fill="#C8725F" d="M322.68 63.982a3.76 3.76 0 00-1.454-.522c-.515-.068-1.04-.069-1.546.07a.054.054 0 00.018.107h.004c.497-.028 1-.022 1.49.057.246.03.488.084.728.15.241.06.473.15.71.235h.003a.055.055 0 00.07-.032.055.055 0 00-.023-.065m-7.195-.937c.174-.013.348-.02.522-.016a3.76 3.76 0 011.501.367.055.055 0 01.03.062.055.055 0 01-.067.04h-.002c-.245-.06-.485-.126-.731-.16a5.063 5.063 0 00-.74-.072 5.53 5.53 0 00-.537 0 .816.816 0 00.024-.22"/><path fill="#000" d="M320.604 65.128a.347.347 0 10.69.063.347.347 0 00-.69-.063m-4.921-.468a.346.346 0 10.69.063.346.346 0 00-.69-.063"/><path fill="#ED6D53" d="M315.224 65.66c.026.001.05-.002.076 0a1.126 1.126 0 011.019 1.223 1.122 1.122 0 01-1.14 1.02 12.14 12.14 0 01.023-1.989l.022-.253m4.596 1.399a1.124 1.124 0 102.24.203 1.125 1.125 0 10-2.24-.202m-1.882-2.469l-1.06 1.62a.31.31 0 00.22.476l1.036.127-.196-2.223z"/><path fill="#FFF" d="M316.36 68.088c-.044.483.594.936 1.424 1.011.83.076 1.538-.255 1.582-.738.043-.483-.673-.184-1.503-.26-.83-.075-1.46-.496-1.503-.013"/><path fill="#E85F5B" d="M313.827 60.454c.806-1.764 3.267-4.22 6.845-3.302 3.035.777 4.313 3.096 4.313 3.096l3.363 7.246c-5.147-.05-5.367-5.84-6.713-6.674-.58-.36-1.377-.639-1.739-.776-1.205 2.857-3.604 1.351-4.436 2.103-1.109 1.002-.644 4.294-.921 4.257-.277-.037-1.944-3.253-.712-5.95"/><path fill="#ED6D53" d="M298.69 72.837c-.406-.97-.793-1.921-1.161-2.85a1.541 1.541 0 012.177.996 1.544 1.544 0 01-1.017 1.854m43.783-1.267c.468-1.044.916-2.069 1.344-3.07a1.679 1.679 0 00-2.399 1.024 1.681 1.681 0 001.055 2.047"/><path fill="#184657" d="M330.667 128.615c.427-8.692-3.987-20.797-3.987-20.797l-.35-.043c-.693.107-2.833.365-7.622.428-6.074.08-7.506-1.642-7.506-1.642l-.001-.017c-2.75 6.29-5.325 13.811-6.429 27.63-1.139 14.25.142 28.928.996 34.058.854 5.13 1.85 9.548 1.85 9.548s1.991.57 3.841.427c1.85-.143 3.7-.855 3.7-.855s-1.906-9.469-1.38-15.85c.526-6.38 3.23-29.324 3.23-29.324s.853 24.369 1.564 30.781c.712 6.413 2.134 14.108 2.134 14.108s1.708.855 3.984.57c2.277-.285 3.7-1.852 3.7-1.852s-1.565-6.983-.854-14.393c.711-7.41 2.703-24.084 3.13-32.777"/><path fill="#FCC14A" d="M325.911 82.053c.405.82-1.183 4.78-1.943 6.577a63.813 63.813 0 00-7.638-.665c-2.553-.065-4.324-.05-5.526-.01.388-1.14 2.066-5.951 2.91-6.57 0 0-1.417.3-2.649 1.62s-2.922 5.595-2.922 5.595l.043-.006c-.588.903-1.68 2.973-.968 5.02.933 2.688 3.353 3.28 3.353 3.28l.63 9.65v.017s1.433 1.72 7.507 1.642c4.789-.063 6.929-.321 7.621-.428.186-.028.268-.046.268-.046s1.082-13.155 1.012-14.797a55.224 55.224 0 00-.177-2.302c.36-2.052 1.335-7.705 1.415-9.173.123-2.237-2.936.596-2.936.596"/></g></g></svg>